<?xml version="1.0" encoding="utf-8"?>
<!-- Generator: Adobe Illustrator 16.0.0, SVG Export Plug-In . SVG Version: 6.00 Build 0)  -->
<!DOCTYPE svg PUBLIC "-//W3C//DTD SVG 1.1//EN" "http://www.w3.org/Graphics/SVG/1.1/DTD/svg11.dtd">
<svg version="1.1" id="Livello_1" xmlns="http://www.w3.org/2000/svg" xmlns:xlink="http://www.w3.org/1999/xlink" x="0px" y="0px"
	 width="36px" height="36px" viewBox="0 0 36 36" style="enable-background:new 0 0 36 36;" xml:space="preserve">
<style type="text/css">
<![CDATA[
	.st0{fill:none;stroke:#4A90E2;stroke-width:3;stroke-linecap:round;stroke-linejoin:round;stroke-miterlimit:10;}
	.st1{fill:none;stroke:#4A90E2;stroke-width:4;stroke-linecap:round;stroke-linejoin:round;stroke-miterlimit:10;}
	.st2{fill:#333333;}
]]>
</style>
<path class="st2" d="M26.1,12h-20L10,7.5c0.5-0.6,0.5-1.6-0.2-2.1C9.2,4.9,8.2,4.9,7.7,5.5l-6.1,7.1c-0.5,0.6-0.5,1.4,0,2l6.1,7.1
	C8,22,8.4,22.2,8.8,22.2c0.3,0,0.7-0.1,1-0.4c0.6-0.5,0.7-1.5,0.2-2.1L5.9,15h20.2c3,0,5.5,2.5,5.5,5.5c0,3-2.5,5.5-5.5,5.5H22
	c-0.8,0-1.5,0.7-1.5,1.5S21.2,29,22,29h4.1c4.7,0,8.5-3.8,8.5-8.5C34.6,15.8,30.8,12,26.1,12z"/>
</svg>
