<?xml version="1.0" encoding="utf-8"?>
<!-- Generator: Adobe Illustrator 16.0.0, SVG Export Plug-In . SVG Version: 6.00 Build 0)  -->
<!DOCTYPE svg PUBLIC "-//W3C//DTD SVG 1.1//EN" "http://www.w3.org/Graphics/SVG/1.1/DTD/svg11.dtd">
<svg version="1.1" id="Layer_1" xmlns="http://www.w3.org/2000/svg" xmlns:xlink="http://www.w3.org/1999/xlink" x="0px" y="0px"
	 width="32px" height="32px" viewBox="0 0 32 32" style="enable-background:new 0 0 32 32;" xml:space="preserve">
<style type="text/css">
<![CDATA[
	.st0{fill:#0099FF;}
]]>
</style>
<g>
	<g>
		<path class="st0" d="M15.9,0.4C7.4,0.4,0.4,7.4,0.4,16c0,8.6,7,15.6,15.6,15.6c8.7,0.1,15.7-6.9,15.7-15.6
			C31.7,7.4,24.7,0.4,15.9,0.4z M18.1,19.2L18.1,19.2h-4.4v4.7h-3.1V8.2h7.6l0,0c3,0,5.5,2.4,5.5,5.5S21.1,19.2,18.1,19.2z"/>
	</g>
	<g>
		<path class="st0" d="M18.1,11.4L18.1,11.4h-4.4v4.7h4.4l0,0c1.3,0,2.3-1,2.3-2.3C20.3,12.5,19.3,11.4,18.1,11.4z"/>
	</g>
</g>
</svg>
