<?xml version="1.0" encoding="utf-8"?>
<!-- Generator: Adobe Illustrator 16.0.0, SVG Export Plug-In . SVG Version: 6.00 Build 0)  -->
<!DOCTYPE svg PUBLIC "-//W3C//DTD SVG 1.1//EN" "http://www.w3.org/Graphics/SVG/1.1/DTD/svg11.dtd">
<svg version="1.1" id="Livello_1" xmlns="http://www.w3.org/2000/svg" xmlns:xlink="http://www.w3.org/1999/xlink" x="0px" y="0px"
	 width="80px" height="80px" viewBox="0 0 80 80" style="enable-background:new 0 0 80 80;" xml:space="preserve">
<style type="text/css">
<![CDATA[
	.st0{fill:#FFFFFF;}
	.st1{fill:none;}
]]>
</style>
<g>
	<path class="st1" d="M38.4,36.8h-1.6C36.8,36.8,38.1,37.4,38.4,36.8z"/>
	<path class="st0" d="M0,0c10.2,10.2,20.4,20.3,30.5,30.5c2,2,7.1,9.4,9.9,4.1c-1.7-1.2-3.6-3.6-2.3-5.8c1-2.2,0.6-3.5,0.6-3.5
		c-0.3-2.2,1-0.6,1-0.6c1.3,1.6,0.6,3.5,0.6,3.5c-0.8,2.5,0.7,4.1,2,4.8l0.6-0.6c1-0.6,1.9-1,2.6-1c-2.6-3.5-4.8-7.7,0.6-13.1
		c1.6-1.6,3.2-2.2,5.1-2.2c0.3-0.6,1-2.2,3.8-3.5c0,0,1.6,1,2.2,5.1c1.3,0.6,2.6,1.6,3.8,2.9s2.2,2.6,2.9,3.8c4.5,1,5.4,2.2,5.4,2.2
		c-1.3,2.6-2.9,3.5-3.5,3.5c0,1.9-0.6,3.5-2.2,5.1c-5.1,5.1-9.6,3.2-13.1,0.6c0,1-0.3,2.2-1.6,3.5c-3.7,3.7-4.6,5.1-0.7,8.9
		c2.8,2.7,5.5,5.4,8.2,8.1c6.4,6.3,12.7,12.7,19.1,19.1c1.5,1.5,3,3,4.5,4.5V0H0z"/>
</g>
</svg>
