<?xml version="1.0" encoding="utf-8"?>
<!-- Generator: Adobe Illustrator 16.0.0, SVG Export Plug-In . SVG Version: 6.00 Build 0)  -->
<!DOCTYPE svg PUBLIC "-//W3C//DTD SVG 1.1//EN" "http://www.w3.org/Graphics/SVG/1.1/DTD/svg11.dtd">
<svg version="1.1" id="Livello_1" xmlns="http://www.w3.org/2000/svg" xmlns:xlink="http://www.w3.org/1999/xlink" x="0px" y="0px"
	 width="20.6px" height="25.8px" viewBox="7.3 16.8 20.6 25.8" style="enable-background:new 7.3 16.8 20.6 25.8;"
	 xml:space="preserve">
<style type="text/css">
<![CDATA[
	.st0{fill:#4A4A4A;}
]]>
</style>
<path class="st0" d="M16,18.9v17.5l-5.2-4.5c-0.6-0.5-1.6-0.5-2.2,0.2c-0.5,0.6-0.5,1.6,0.1,2.1l7.8,6.9c0.6,0.5,1.4,0.5,2,0
	l7.8-6.9c0.3-0.3,0.5-0.7,0.5-1.1c0-0.3-0.1-0.7-0.4-1c-0.5-0.6-1.3-0.7-2-0.2l-5.4,5v-18c0-0.8-0.7-1.5-1.5-1.5S16,18.1,16,18.9z"
	/>
</svg>
