<?xml version="1.0" encoding="utf-8"?>
<!-- Generator: Adobe Illustrator 16.0.0, SVG Export Plug-In . SVG Version: 6.00 Build 0)  -->
<!DOCTYPE svg PUBLIC "-//W3C//DTD SVG 1.1//EN" "http://www.w3.org/Graphics/SVG/1.1/DTD/svg11.dtd">
<svg version="1.1" id="Livello_1" xmlns="http://www.w3.org/2000/svg" xmlns:xlink="http://www.w3.org/1999/xlink" x="0px" y="0px"
	 width="20.6px" height="25.8px" viewBox="0 0 20.6 25.8" enable-background="new 0 0 20.6 25.8" xml:space="preserve">
<path fill="#4A4A4A" d="M12.421,12.9l7.755-7.755c0.586-0.585,0.586-1.536,0-2.121c-0.586-0.586-1.535-0.586-2.121,0L10.3,10.779
	L2.545,3.024c-0.586-0.586-1.535-0.586-2.121,0s-0.586,1.536,0,2.121L8.179,12.9l-7.755,7.755c-0.586,0.586-0.586,1.535,0,2.121
	c0.293,0.293,0.677,0.439,1.061,0.439s0.768-0.146,1.061-0.439l7.755-7.755l7.755,7.755c0.293,0.293,0.677,0.439,1.061,0.439
	s0.768-0.146,1.061-0.439c0.586-0.586,0.586-1.535,0-2.121L12.421,12.9z"/>
</svg>
